<svg xmlns="http://www.w3.org/2000/svg" viewBox="0 0 100 100" width="100%" height="100%">
  <!-- Background Circle -->
  <circle cx="50" cy="50" r="45" fill="#1e1e1e" />
  
  <!-- Outer Border -->
  <circle cx="50" cy="50" r="42" fill="none" stroke="#ff5722" stroke-width="2" />
  
  <!-- NF Text -->
  <text x="50" y="42" font-family="Arial, sans-serif" font-size="24" font-weight="bold" fill="#ff5722" text-anchor="middle">NF</text>
  
  <!-- Fitness Text -->
  <text x="50" y="62" font-family="Arial, sans-serif" font-size="12" fill="#ffffff" text-anchor="middle">FITNESS</text>
  
  <!-- Muscular Icon (Simplified) -->
  <path d="M30,66 C30,63 35,60 40,60 C45,60 50,65 60,65 C70,65 75,60 75,65 C75,70 70,75 60,75 C50,75 45,70 40,70 C35,70 30,69 30,66 Z" fill="#ff5722" />
  
  <!-- Dumbbell Icon -->
  <rect x="25" y="48" width="50" height="3" rx="1.5" fill="#ffffff" />
  <circle cx="20" cy="49.5" r="5" fill="#ffffff" />
  <circle cx="80" cy="49.5" r="5" fill="#ffffff" />
</svg>
